<svg width="38" height="35" viewBox="0 0 38 35" fill="none" xmlns="http://www.w3.org/2000/svg">
<path d="M18.7999 30.6802C18.911 30.6802 19.0221 30.6524 19.1332 30.5968C19.2443 30.5413 19.3276 30.4857 19.3832 30.4302L33.0499 16.7635C33.3832 16.4302 33.6263 16.0552 33.779 15.6385C33.9318 15.2218 34.0082 14.8052 34.0082 14.3885C34.0082 13.9441 33.9318 13.5205 33.779 13.1177C33.6263 12.7149 33.3832 12.3607 33.0499 12.0552L25.9665 4.97184C25.661 4.63851 25.3068 4.39545 24.904 4.24268C24.5013 4.0899 24.0777 4.01351 23.6332 4.01351C23.2165 4.01351 22.7999 4.0899 22.3832 4.24268C21.9665 4.39545 21.5915 4.63851 21.2582 4.97184L20.7999 5.43018L23.8832 8.55518C24.2999 8.94406 24.6054 9.38851 24.7999 9.88851C24.9943 10.3885 25.0915 10.9163 25.0915 11.4718C25.0915 12.6385 24.6957 13.6177 23.904 14.4093C23.1124 15.201 22.1332 15.5968 20.9665 15.5968C20.411 15.5968 19.8763 15.4996 19.3624 15.3052C18.8485 15.1107 18.3971 14.8191 18.0082 14.4302L14.8832 11.3468L7.59154 18.6385C7.5082 18.7218 7.4457 18.8121 7.40404 18.9093C7.36237 19.0066 7.34154 19.1107 7.34154 19.2218C7.34154 19.4441 7.42487 19.6455 7.59154 19.826C7.7582 20.0066 7.95265 20.0968 8.17487 20.0968C8.28598 20.0968 8.39709 20.0691 8.5082 20.0135C8.61931 19.958 8.70265 19.9024 8.7582 19.8468L14.4249 14.1802L16.7582 16.5135L11.1332 22.1802C11.0499 22.2635 10.9874 22.3538 10.9457 22.451C10.904 22.5482 10.8832 22.6524 10.8832 22.7635C10.8832 22.9857 10.9665 23.1802 11.1332 23.3468C11.2999 23.5135 11.4943 23.5968 11.7165 23.5968C11.8276 23.5968 11.9388 23.5691 12.0499 23.5135C12.161 23.458 12.2443 23.4024 12.2999 23.3468L17.9665 17.7218L20.2999 20.0552L14.6749 25.7218C14.5915 25.7774 14.529 25.8607 14.4874 25.9718C14.4457 26.083 14.4249 26.1941 14.4249 26.3052C14.4249 26.5274 14.5082 26.7218 14.6749 26.8885C14.8415 27.0552 15.036 27.1385 15.2582 27.1385C15.3693 27.1385 15.4735 27.1177 15.5707 27.076C15.6679 27.0343 15.7582 26.9718 15.8415 26.8885L21.5082 21.2635L23.8415 23.5968L18.1749 29.2635C18.0915 29.3468 18.029 29.4371 17.9874 29.5343C17.9457 29.6316 17.9249 29.7357 17.9249 29.8468C17.9249 30.0691 18.0151 30.2635 18.1957 30.4302C18.3763 30.5968 18.5776 30.6802 18.7999 30.6802ZM18.7582 34.0135C17.7304 34.0135 16.8207 33.6732 16.029 32.9927C15.2374 32.3121 14.7721 31.458 14.6332 30.4302C13.6888 30.2913 12.8971 29.9024 12.2582 29.2635C11.6193 28.6246 11.2304 27.833 11.0915 26.8885C10.1471 26.7496 9.36237 26.3538 8.73737 25.701C8.11237 25.0482 7.73043 24.2635 7.59154 23.3468C6.53598 23.208 5.67487 22.7496 5.0082 21.9718C4.34154 21.1941 4.0082 20.2774 4.0082 19.2218C4.0082 18.6663 4.11237 18.1316 4.3207 17.6177C4.52904 17.1038 4.82765 16.6524 5.21654 16.2635L14.8832 6.63851L20.3415 12.0968C20.3971 12.1802 20.4804 12.2427 20.5915 12.2843C20.7026 12.326 20.8138 12.3468 20.9249 12.3468C21.1749 12.3468 21.3832 12.2705 21.5499 12.1177C21.7165 11.9649 21.7999 11.7635 21.7999 11.5135C21.7999 11.4024 21.779 11.2913 21.7374 11.1802C21.6957 11.0691 21.6332 10.9857 21.5499 10.9302L15.5915 4.97184C15.286 4.63851 14.9318 4.39545 14.529 4.24268C14.1263 4.0899 13.7026 4.01351 13.2582 4.01351C12.8415 4.01351 12.4249 4.0899 12.0082 4.24268C11.5915 4.39545 11.2165 4.63851 10.8832 4.97184L5.0082 10.8885C4.7582 11.1385 4.54987 11.4302 4.3832 11.7635C4.21654 12.0968 4.10543 12.4302 4.04987 12.7635C3.99431 13.0968 3.99431 13.4371 4.04987 13.7843C4.10543 14.1316 4.21654 14.458 4.3832 14.7635L1.96654 17.1802C1.49431 16.5413 1.14709 15.8399 0.92487 15.076C0.702648 14.3121 0.619314 13.5413 0.67487 12.7635C0.730425 11.9857 0.92487 11.2288 1.2582 10.4927C1.59154 9.75656 2.04987 9.09684 2.6332 8.51351L8.5082 2.63851C9.17487 1.99962 9.91793 1.51351 10.7374 1.18018C11.5568 0.846842 12.3971 0.680176 13.2582 0.680176C14.1193 0.680176 14.9596 0.846842 15.779 1.18018C16.5985 1.51351 17.3276 1.99962 17.9665 2.63851L18.4249 3.09684L18.8832 2.63851C19.5499 1.99962 20.2929 1.51351 21.1124 1.18018C21.9318 0.846842 22.7721 0.680176 23.6332 0.680176C24.4943 0.680176 25.3346 0.846842 26.154 1.18018C26.9735 1.51351 27.7027 1.99962 28.3415 2.63851L35.3832 9.68017C36.0221 10.3191 36.5082 11.0552 36.8415 11.8885C37.1749 12.7218 37.3415 13.5691 37.3415 14.4302C37.3415 15.2913 37.1749 16.1316 36.8415 16.951C36.5082 17.7705 36.0221 18.4996 35.3832 19.1385L21.7165 32.7635C21.3276 33.1524 20.8763 33.458 20.3624 33.6802C19.8485 33.9024 19.3138 34.0135 18.7582 34.0135Z" fill="#FDB825"/>
</svg>
