<svg width="32" height="27" viewBox="0 0 32 27" fill="none" xmlns="http://www.w3.org/2000/svg">
<path d="M16 10.458L10.9091 5.40248L16 0.346924L21.0909 5.40248L16 10.458ZM0 26.3469V20.5691C0 19.7506 0.284848 19.0645 0.854545 18.5108C1.42424 17.9571 2.10909 17.6803 2.90909 17.6803H7.67273C8.15758 17.6803 8.61818 17.8006 9.05455 18.0414C9.49091 18.2821 9.84242 18.6071 10.1091 19.0164C10.8121 19.9553 11.6788 20.6895 12.7091 21.2191C13.7394 21.7488 14.8364 22.0136 16 22.0136C17.1879 22.0136 18.297 21.7488 19.3273 21.2191C20.3576 20.6895 21.2121 19.9553 21.8909 19.0164C22.2061 18.6071 22.5758 18.2821 23 18.0414C23.4242 17.8006 23.8667 17.6803 24.3273 17.6803H29.0909C29.9151 17.6803 30.6061 17.9571 31.1636 18.5108C31.7212 19.0645 32 19.7506 32 20.5691V26.3469H21.8182V23.0608C20.9697 23.6627 20.0545 24.1201 19.0727 24.433C18.0909 24.746 17.0667 24.9025 16 24.9025C14.9576 24.9025 13.9394 24.74 12.9455 24.415C11.9515 24.09 11.0303 23.6266 10.1818 23.0247V26.3469H0ZM4.36364 16.2358C3.15152 16.2358 2.12121 15.8145 1.27273 14.9719C0.424242 14.1293 0 13.1062 0 11.9025C0 10.6747 0.424242 9.64554 1.27273 8.81498C2.12121 7.98442 3.15152 7.56915 4.36364 7.56915C5.6 7.56915 6.63636 7.98442 7.47273 8.81498C8.30909 9.64554 8.72727 10.6747 8.72727 11.9025C8.72727 13.1062 8.30909 14.1293 7.47273 14.9719C6.63636 15.8145 5.6 16.2358 4.36364 16.2358ZM27.6364 16.2358C26.4242 16.2358 25.3939 15.8145 24.5455 14.9719C23.697 14.1293 23.2727 13.1062 23.2727 11.9025C23.2727 10.6747 23.697 9.64554 24.5455 8.81498C25.3939 7.98442 26.4242 7.56915 27.6364 7.56915C28.8727 7.56915 29.9091 7.98442 30.7455 8.81498C31.5818 9.64554 32 10.6747 32 11.9025C32 13.1062 31.5818 14.1293 30.7455 14.9719C29.9091 15.8145 28.8727 16.2358 27.6364 16.2358Z" fill="#FDB825"/>
</svg>
