<svg width="28" height="35" viewBox="0 0 28 35" fill="none" xmlns="http://www.w3.org/2000/svg">
<path d="M14.0003 34.0135C10.1392 33.0413 6.95171 30.826 4.43783 27.3677C1.92394 23.9093 0.666992 20.0691 0.666992 15.8468V5.68018L14.0003 0.680176L27.3337 5.68018V15.8468C27.3337 20.0691 26.0767 23.9093 23.5628 27.3677C21.0489 30.826 17.8614 33.0413 14.0003 34.0135ZM14.0003 30.5135C16.8892 29.5968 19.2781 27.7635 21.167 25.0135C23.0559 22.2635 24.0003 19.208 24.0003 15.8468V7.97184L14.0003 4.22184L4.00033 7.97184V15.8468C4.00033 19.208 4.94477 22.2635 6.83366 25.0135C8.72255 27.7635 11.1114 29.5968 14.0003 30.5135Z" fill="#FDB825"/>
</svg>
