<svg width="34" height="31" viewBox="0 0 34 31" fill="none" xmlns="http://www.w3.org/2000/svg">
<path d="M15.333 30.3469V27.0136H28.6663V15.1803C28.6663 11.9303 27.5344 9.17331 25.2705 6.90942C23.0066 4.64553 20.2497 3.51359 16.9997 3.51359C13.7497 3.51359 10.9927 4.64553 8.72884 6.90942C6.46495 9.17331 5.33301 11.9303 5.33301 15.1803V25.3469H3.66634C2.74967 25.3469 1.96495 25.0205 1.31217 24.3678C0.659397 23.715 0.333008 22.9303 0.333008 22.0136V18.6803C0.333008 18.0969 0.478841 17.5483 0.770508 17.0344C1.06217 16.5205 1.4719 16.1108 1.99967 15.8053L2.12467 13.5969C2.3469 11.708 2.89551 9.95804 3.77051 8.34692C4.64551 6.73581 5.74273 5.33303 7.06217 4.13859C8.38162 2.94415 9.89551 2.01359 11.6038 1.34692C13.3122 0.680257 15.1108 0.346924 16.9997 0.346924C18.8886 0.346924 20.6802 0.680257 22.3747 1.34692C24.0691 2.01359 25.583 2.9372 26.9163 4.11776C28.2497 5.29831 29.3469 6.69415 30.208 8.30526C31.0691 9.91637 31.6247 11.6664 31.8747 13.5553L31.9997 15.7219C32.5275 15.9719 32.9372 16.3469 33.2288 16.8469C33.5205 17.3469 33.6663 17.8747 33.6663 18.4303V22.2636C33.6663 22.8191 33.5205 23.3469 33.2288 23.8469C32.9372 24.3469 32.5275 24.7219 31.9997 24.9719V27.0136C31.9997 27.9303 31.6733 28.715 31.0205 29.3678C30.3677 30.0205 29.583 30.3469 28.6663 30.3469H15.333ZM11.9997 18.6803C11.5275 18.6803 11.1316 18.5205 10.8122 18.2011C10.4927 17.8816 10.333 17.4858 10.333 17.0136C10.333 16.5414 10.4927 16.1455 10.8122 15.8261C11.1316 15.5066 11.5275 15.3469 11.9997 15.3469C12.4719 15.3469 12.8677 15.5066 13.1872 15.8261C13.5066 16.1455 13.6663 16.5414 13.6663 17.0136C13.6663 17.4858 13.5066 17.8816 13.1872 18.2011C12.8677 18.5205 12.4719 18.6803 11.9997 18.6803ZM21.9997 18.6803C21.5275 18.6803 21.1316 18.5205 20.8122 18.2011C20.4927 17.8816 20.333 17.4858 20.333 17.0136C20.333 16.5414 20.4927 16.1455 20.8122 15.8261C21.1316 15.5066 21.5275 15.3469 21.9997 15.3469C22.4719 15.3469 22.8677 15.5066 23.1872 15.8261C23.5066 16.1455 23.6663 16.5414 23.6663 17.0136C23.6663 17.4858 23.5066 17.8816 23.1872 18.2011C22.8677 18.5205 22.4719 18.6803 21.9997 18.6803ZM7.04134 16.0969C6.8469 13.1525 7.73579 10.6247 9.70801 8.51359C11.6802 6.40248 14.1386 5.34692 17.083 5.34692C19.5552 5.34692 21.7288 6.13165 23.6038 7.70109C25.4788 9.27054 26.6108 11.2775 26.9997 13.7219C24.4719 13.6941 22.1455 13.0136 20.0205 11.6803C17.8955 10.3469 16.2636 8.54137 15.1247 6.26359C14.6802 8.48581 13.7427 10.465 12.3122 12.2011C10.8816 13.9372 9.12467 15.2358 7.04134 16.0969Z" fill="#FDB825"/>
</svg>
